<svg viewBox="0 0 74 23" fill="none" xmlns="http://www.w3.org/2000/svg"><path d="M0 1.55a1.29 1.29 0 0 1 1.26-1.29h7.13c5.06 0 8.39 2.7 8.39 7.13v.06c0 4.85-4.04 7.36-8.8 7.36h-5.44v6.8a1.28 1.28 0 0 1-1.27 1.39 1.27 1.27 0 0 1-1.27-1.39v-20.06Zm8.07 10.97c3.7 0 6.14-2 6.14-4.99v-.06c0-3.2-2.4-4.87-5.96-4.87h-5.66v9.88l5.48.04Zm13.53-11.13a1.28 1.28 0 0 1 1.26-1.39 1.27 1.27 0 0 1 1.27 1.39v20.22a1.28 1.28 0 0 1-1.27 1.39 1.27 1.27 0 0 1-1.27-1.39v-20.22Zm9.07.03a1.28 1.28 0 0 1 1.26-1.25h.34a1.54 1.54 0 0 1 1.29.74l13.6 17.4v-16.95a1.24 1.24 0 0 1 1.23-1.24 1.23 1.23 0 0 1 1.23 1.24v20.3a1.14 1.14 0 0 1-1.15 1.17h-.13a1.7 1.7 0 0 1-1.31-.78l-13.91-17.8v17.4a1.26 1.26 0 0 1-1.2 1.25 1.23 1.23 0 0 1-1.2-1.25v-20.23h-.05Zm25.27-.03a1.28 1.28 0 0 1 1.27-1.39 1.27 1.27 0 0 1 1.26 1.39v12.3l12.76-13.14a1.5 1.5 0 0 1 1-.45 1.27 1.27 0 0 1 1.21 1.26 1.29 1.29 0 0 1-.41.9l-7.95 7.9 8.57 10.52c.23.26.35.6.35.94a1.31 1.31 0 0 1-1.34 1.28 1.23 1.23 0 0 1-1-.58l-8.36-10.46-4.83 4.85v4.88a1.27 1.27 0 0 1-1.26 1.27 1.26 1.26 0 0 1-1.26-1.27v-20.2h-.01Z" fill="#fff"/></svg>