<svg xmlns="http://www.w3.org/2000/svg"><style>:root svg:not(:target){display:none}</style><svg preserveAspectRatio="none" viewBox="0 0 1172 828" fill="none" id="bg-grey"><path d="m0 115.8 1172-115.8v828h-1172v-712.2Z" fill="#F2F2F2"></path></svg><svg viewBox="0 0 43 47" fill="none" id="icon-android"><path d="M34.89 14.06h-26.78v19.13c0 .92.34 1.8.96 2.47a3.7 3.7 0 0 0 2.43 1.16v7.46c.04.73.37 1.42.92 1.93a2.99 2.99 0 0 0 4.05 0c.55-.5.88-1.2.92-1.93v-7.44h8.24v7.44c.04.73.37 1.42.92 1.93a2.99 2.99 0 0 0 4.05 0c.55-.5.88-1.2.92-1.93v-7.46a3.7 3.7 0 0 0 2.43-1.16c.63-.67.97-1.55.97-2.46v-18.8l-.03-.34Zm-31.94 1.68a2.93 2.93 0 0 1 2.95 2.89v12.4a2.84 2.84 0 0 1-.86 2.05 2.95 2.95 0 0 1-2.09.85c-.78 0-1.53-.3-2.09-.85a2.87 2.87 0 0 1-.86-2.05v-12.4a2.84 2.84 0 0 1 .87-2.04 2.95 2.95 0 0 1 2.08-.85Zm37.11 0a2.93 2.93 0 0 1 2.94 2.89v12.4a2.84 2.84 0 0 1-.86 2.05 2.95 2.95 0 0 1-2.08.85c-.79 0-1.54-.3-2.1-.85a2.87 2.87 0 0 1-.86-2.05v-12.4a2.84 2.84 0 0 1 .87-2.04 2.95 2.95 0 0 1 2.09-.85Zm-31.89-3.68h26.57a10.4 10.4 0 0 0-3.26-7.3l2.57-4.26a.3.3 0 0 0-.12-.46.32.32 0 0 0-.42.1l-2.42 4.16a16.7 16.7 0 0 0-9.63-3.4 16.98 16.98 0 0 0-9.58 3.4l-2.38-4.11a.32.32 0 0 0-.18-.16.33.33 0 0 0-.25 0 .31.31 0 0 0-.11.42l2.5 4.25a10.44 10.44 0 0 0-3.29 7.36Zm17.7-5.21c0-.4.17-.78.45-1.06a1.55 1.55 0 0 1 2.17 0 1.49 1.49 0 0 1 0 2.12 1.55 1.55 0 0 1-2.17 0 1.49 1.49 0 0 1-.45-1.06Zm-11.38 0c0-.4.16-.78.45-1.06a1.55 1.55 0 0 1 2.17 0 1.49 1.49 0 0 1 0 2.12 1.55 1.55 0 0 1-2.17 0 1.49 1.49 0 0 1-.45-1.06Z" fill="#A4C639"></path></svg><svg viewBox="0 0 47 56" fill="none" id="icon-apple"><path d="M39.24 29.74c.01 2.41.75 4.77 2.13 6.79a12.67 12.67 0 0 0 5.63 4.53 29.8 29.8 0 0 1-4 7.96c-2.4 3.42-4.9 6.82-8.84 6.9-3.94.1-5.1-2.21-9.53-2.21-4.44 0-5.8 2.15-9.46 2.29-3.67.13-6.7-3.72-9.1-7.12-4.95-6.9-8.75-19.63-3.66-28.2 1.2-2.07 2.93-3.8 5.03-5.03a14.49 14.49 0 0 1 6.93-1.98c3.73-.07 7.25 2.43 9.53 2.43 2.28 0 6.56-3.01 11.06-2.57 2.08.08 4.12.62 5.95 1.58 1.84.96 3.41 2.32 4.61 3.98-.27.16-6.3 3.57-6.24 10.65h-.04Zm-7.26-20.8a12.07 12.07 0 0 0 3-8.94c-3.3.3-6.36 1.82-8.55 4.24-1.86 2.1-3.5 5.45-3.05 8.66 3.25.25 6.55-1.6 8.57-3.94" fill="#fff"></path></svg><svg viewBox="0 0 22 41" fill="none" id="icon-arrow"><path d="m19.96 20.5-19.7 19.09a.82.82 0 0 0-.26.58.8.8 0 0 0 .25.59.86.86 0 0 0 .61.24.88.88 0 0 0 .6-.24l20.29-19.67a.83.83 0 0 0 .25-.59.81.81 0 0 0-.25-.59l-20.28-19.67a.9.9 0 0 0-1.09-.1.84.84 0 0 0-.31.37.8.8 0 0 0 .18.9l19.7 19.09Z" fill="#283645"></path></svg><svg viewBox="0 0 31 21" fill="none" id="icon-available"><path d="M30.56.43a1.54 1.54 0 0 0-1.1-.43 1.6 1.6 0 0 0-1.08.43l-18 17.07-7.8-7.39a1.58 1.58 0 0 0-2.13.04c-.28.26-.44.62-.45 1 0 .37.14.74.41 1.01l8.88 8.41a1.53 1.53 0 0 0 1.08.43c.41 0 .8-.15 1.09-.43l19.1-18.09a1.42 1.42 0 0 0 0-2.05Z" fill="#3DC644"></path></svg><svg viewBox="0 0 22 16" fill="none" id="icon-checked"><path d="M21.7.28a1.02 1.02 0 0 0-1.42 0l-13.58 13.32-4.97-4.87a1.02 1.02 0 0 0-1.1-.22.99.99 0 0 0-.33 1.62l5.68 5.58a1.02 1.02 0 0 0 .72.29c.27 0 .52-.1.71-.29l14.29-14.01a1 1 0 0 0 .3-.7.98.98 0 0 0-.3-.72Z" fill="#D22856"></path></svg><svg viewBox="0 0 32 32" fill="none" id="icon-contrast"><g fill="#D22856"><path d="M16 4a12 12 0 1 1 0 24 12 12 0 0 1 0-24Zm0-4a16 16 0 1 0 0 32 16 16 0 0 0 0-32Z"></path><path d="M16 24.29a8.52 8.52 0 0 0 0-17"></path></g></svg><svg viewBox="0 0 27 34" fill="none" id="icon-copyright"><path d="m13.64.02-.14-.02-13.5 1.4v24.61l13.5 7.99 13.5-7.99v-24.6l-13.36-1.4Zm11.6 25-11.74 6.94-11.73-6.94v-10.1l11.68 6.93.02 1.25-8.02-4.75v1.23l8.04 4.8.02 1.3-8.05-4.76v1.22l8.04 4.81 8.12-4.83v-5.21l3.62-2.15v10.26Zm0-11.57-3.23 1.88-1.48.88-7.06-4.19-.01 1.23 6.04 3.57-.06.03-.13.07-.86.5-4.98-2.95-.01 1.22 3.93 2.33-.93.61-.02.01-2.97-1.74-.01 1.23 1.94 1.13-1.98 1.19-11.62-6.87 11.63-6.96 11.8 6.83Zm0-1.22-11.8-6.92-11.67 6.91v-9.23l11.73-1.23 11.73 1.23v9.24Z" fill="#D22856"></path></svg><svg viewBox="0 0 44 44" fill="none" id="icon-crop"><path d="M32 28h4v-16a4 4 0 0 0-4-4h-16v4h16v16Zm-20 4v-32h-4v8h-8v4h8v20a4 4 0 0 0 4 4h20v8h4v-8h8v-4h-32Z" fill="#D22856"></path></svg><svg viewBox="0 0 18 13" fill="none" id="icon-email"><path d="M14.91 1.68c1.2-.93.91-1.68-.65-1.68h-10.53c-1.56 0-1.85.76-.66 1.68l3.75 2.9a3.7 3.7 0 0 0 4.35 0l3.74-2.9Z" fill="#D22856"></path><path d="m11.91 6.5-2.21 1.75c-.08.04-.17.08-.26.1l-.1.05c-.1.05-.22.07-.34.09l-.33-.06-.12-.07a1.18 1.18 0 0 1-.24-.13l-2.23-1.73-3.9-2.97c-1.18-.93-2.18-.5-2.18.95v5.86a2.48 2.48 0 0 0 .82 1.87 2.87 2.87 0 0 0 2.01.79h12.32a3.04 3.04 0 0 0 2.02-.78 2.53 2.53 0 0 0 .83-1.88v-5.86c0-1.45-1-1.86-2.18-.93l-3.91 2.95Z" fill="#D22856"></path></svg><svg viewBox="0 0 9 18" fill="none" id="icon-facebook"><path d="M6.5 3.2h2.5v-3.2h-2.98c-3.26.17-4.42 2.27-3.94 5.82h-2.08v3.33h2.08v8.85h3.94v-8.85h2.96v-3.33h-2.97c-.02-1-.04-2.3.5-2.63Z" fill="#D22856"></path></svg><svg viewBox="0 0 48 43" fill="none" id="icon-fill"><path d="m33.12 17.88-17.88-17.88-2.83 2.83 4.76 4.76-10.29 10.29a3 3 0 0 0 0 4.24l11 11a3 3 0 0 0 4.24 0l11-11a3 3 0 0 0 0-4.24Zm-22.71 2.12 9.59-9.58 9.59 9.58h-19.18Zm27.59 3s-4 4.33-4 7a4 4 0 1 0 8 0c0-2.67-4-7-4-7Zm10 17h-48v3h48v-3Z" fill="#D22856"></path></svg><svg viewBox="0 0 13 12" fill="none" id="icon-heart"><path d="M6.47 12a.78.78 0 0 1-.58-.25c-3.93-4.33-4.85-5.31-5.03-5.58a3.77 3.77 0 0 1-.86-2.37c0-.73.22-1.44.63-2.05.4-.6.99-1.1 1.67-1.4a4.09 4.09 0 0 1 4.21.55 4.08 4.08 0 0 1 5.34.22 3.73 3.73 0 0 1 1.15 2.68 3.4 3.4 0 0 1-.92 2.38l-5.04 5.56a.76.76 0 0 1-.57.25v.01Zm-4.4-6.72c.22.26 2.56 2.84 4.4 4.86l4.48-4.94c.36-.38.55-.88.54-1.4 0-.62-.26-1.21-.71-1.65a2.46 2.46 0 0 0-2.8-.43c-.35.16-.65.4-.88.69a.82.82 0 0 1-.61.28.76.76 0 0 1-.6-.3 2.43 2.43 0 0 0-1.95-.92 2.41 2.41 0 0 0-2.16 1.34 2.27 2.27 0 0 0 .3 2.46v.01Z" fill="#D22856"></path></svg><svg viewBox="0 0 20 19" fill="none" id="icon-phone"><path d="M10.04 0c-3.58 0-7.13.6-8.46 1.82a6.4 6.4 0 0 0-1.58 4.05c0 .21.09.41.25.56.15.15.37.23.59.23l3.24-.25h.08a.86.86 0 0 0 .58-.23.78.78 0 0 0 .24-.56v-1.57a.83.83 0 0 1 .26-.62.92.92 0 0 1 .65-.26h8.16c.24 0 .48.09.65.25.18.17.27.4.27.63v1.55a.83.83 0 0 0 .82.79h.09l3.28.25a.88.88 0 0 0 .6-.23.8.8 0 0 0 .24-.56v-.16a6.46 6.46 0 0 0-1.56-3.86c-1.24-1.22-4.82-1.83-8.4-1.83Zm0 10.3c-.33 0-.65.1-.93.27a1.6 1.6 0 0 0-.61.71 1.5 1.5 0 0 0 .36 1.73 1.76 1.76 0 0 0 1.82.34c.3-.12.57-.32.75-.58a1.53 1.53 0 0 0-.2-2 1.67 1.67 0 0 0-1.19-.47Zm-1.25-3.54v-.97c0-.25-.11-.5-.3-.68a1.07 1.07 0 0 0-1.44 0c-.2.18-.3.43-.3.68v.97l-5.73 5.69a1.93 1.93 0 0 0-.63 1.42v1.58c0 .42.18.83.49 1.12.31.3.74.47 1.18.47h.42v.97a.95.95 0 0 0 .3.7 1.05 1.05 0 0 0 .74.29 1.1 1.1 0 0 0 .74-.29.99.99 0 0 0 .3-.7v-.97h10.91v.97a1 1 0 0 0 .3.7c.2.19.47.29.75.29.27 0 .54-.1.74-.29.2-.19.3-.44.3-.7v-.97h.42a1.75 1.75 0 0 0 1.19-.46 1.58 1.58 0 0 0 .48-1.13v-1.58a1.84 1.84 0 0 0-.62-1.42l-5.65-5.69v-.97a.96.96 0 0 0-.3-.7 1.1 1.1 0 0 0-.74-.29c-.28 0-.54.1-.74.3-.2.18-.3.43-.3.7v.96h-2.51Zm1.25 1.93c.66 0 1.3.19 1.86.54.55.34.98.84 1.23 1.42a3.01 3.01 0 0 1-.73 3.45 3.52 3.52 0 0 1-3.64.69 3.31 3.31 0 0 1-1.5-1.17 3.05 3.05 0 0 1 .42-4c.62-.6 1.47-.93 2.36-.93Z" fill="#D22856"></path></svg><svg viewBox="0 0 18 14" fill="none" id="icon-twitter"><path d="M11.56.17a3.67 3.67 0 0 1 2.11-.03c.69.2 1.3.59 1.72 1.12.72-.2 1.42-.44 2.14-.65-.01.32-.1.63-.26.91a2.2 2.2 0 0 1-.65.73 1.8 1.8 0 0 0 1.38-.45 2.85 2.85 0 0 1-1.66 1.9c-.25 6.27-3.37 10.47-10.69 10.3h-.5c-.44 0-4.42-.43-5.15-1.76a7.28 7.28 0 0 0 4.98-1.09c-1.03-.29-2.85-.45-3.16-2.74.4.13.81.16 1.22.08-1.28-.78-2.7-1.45-2.62-3.5.4.3.9.47 1.42.44-.74-.23-2.09-3.12-.94-4.6 1.92 1.72 3.96 3.34 7.59 3.5.22-2.12 1.2-3.55 3.07-4.16Z" fill="#D22856"></path></svg><svg viewBox="0 0 27 27" fill="none" id="icon-unavailable"><path d="m15.64 13.5 10.91-10.91a1.5 1.5 0 0 0-1.07-2.58c-.4 0-.78.16-1.07.44l-10.9 10.92-10.92-10.92a1.5 1.5 0 0 0-2.58 1.07c0 .4.16.78.44 1.07l10.92 10.92-10.92 10.9a1.5 1.5 0 0 0 0 2.15 1.51 1.51 0 0 0 2.14 0l10.92-10.91 10.9 10.9a1.52 1.52 0 0 0 1.91.2 1.51 1.51 0 0 0 .23-2.33l-10.9-10.91Z" fill="#F25B26"></path></svg><svg viewBox="0 0 44 41" fill="none" id="icon-windows"><path d="M20.9 19.52h-20.9v-19.52h20.9v19.52Z" fill="#F05423"></path><path d="M44 19.52h-20.9v-19.52h20.9v19.52Z" fill="#84C441"></path><path d="M20.9 41h-20.9v-19.52h20.9v19.52Z" fill="#2DABE2"></path><path d="M44 41h-20.9v-19.52h20.9v19.52Z" fill="#F9BC15"></path></svg><svg viewBox="0 0 15 13" fill="none" id="icon-youtube"><path d="M1.83 12.8a1.25 1.25 0 0 1-1.28.04 1.1 1.1 0 0 1-.44-.46.97.97 0 0 1-.1-.6v-10.56c-.03-.2 0-.41.1-.6.1-.2.24-.35.44-.46a1.26 1.26 0 0 1 1.28.03l12.4 5.5c1.03.45 1.03 1.17 0 1.62l-12.4 5.5Z" fill="#D22856"></path></svg><svg viewBox="0 0 147 40" fill="none" id="logo-desktop"><path d="M72.2 18.42c0-.33.13-.65.36-.89.24-.23.56-.37.9-.38h7.21c5.11 0 8.48 2.68 8.48 7.06v.06c0 4.8-4.08 7.29-8.9 7.29h-5.5v6.73a1.24 1.24 0 0 1-.33.97 1.29 1.29 0 0 1-1.46.3 1.29 1.29 0 0 1-.7-.75 1.24 1.24 0 0 1-.07-.52v-19.87Zm8.15 10.87c3.75 0 6.2-1.98 6.2-4.94v-.06c0-3.18-2.41-4.83-6.02-4.83h-5.73v9.79l5.55.04Zm13.67-11.02a1.24 1.24 0 0 1 .33-.97 1.29 1.29 0 0 1 .95-.4 1.3 1.3 0 0 1 .95.4 1.26 1.26 0 0 1 .33.97v20.02a1.25 1.25 0 0 1-.33.97 1.28 1.28 0 0 1-.95.4 1.3 1.3 0 0 1-.95-.4 1.26 1.26 0 0 1-.33-.97v-20.02Zm9.18.03c0-.33.14-.64.38-.87.23-.23.55-.36.88-.37h.36a1.58 1.58 0 0 1 1.3.73l13.74 17.23v-16.78c0-.33.13-.64.37-.87a1.26 1.26 0 0 1 1.76 0c.23.23.36.54.36.87v20.1a1.09 1.09 0 0 1-.32.82 1.15 1.15 0 0 1-.84.34h-.13a1.74 1.74 0 0 1-1.33-.77l-14.06-17.64v17.24c0 .32-.13.62-.35.85-.23.23-.53.37-.86.39a1.3 1.3 0 0 1-.87-.37 1.21 1.21 0 0 1-.35-.87v-20.03h-.04Zm25.54-.03a1.24 1.24 0 0 1 .33-.97 1.29 1.29 0 0 1 .95-.4 1.3 1.3 0 0 1 .95.4 1.25 1.25 0 0 1 .33.97v12.17l12.9-13a1.5 1.5 0 0 1 1-.45 1.28 1.28 0 0 1 1.24 1.25 1.26 1.26 0 0 1-.42.89l-8.04 7.82 8.67 10.42c.22.26.35.59.35.93a1.27 1.27 0 0 1-.41.91 1.32 1.32 0 0 1-.95.36 1.26 1.26 0 0 1-1-.58l-8.46-10.36-4.88 4.8v4.84a1.24 1.24 0 0 1-.79 1.16 1.3 1.3 0 0 1-1.66-.68c-.07-.15-.1-.31-.1-.48v-20h-.01Z" fill="#fff"></path><path d="M98.94 9.75c-.97 0-1.9-.38-2.57-1.05a3.55 3.55 0 0 1-1.08-2.53c0 .95-.38 1.86-1.06 2.53a3.67 3.67 0 0 1-2.57 1.05c.96 0 1.89.38 2.57 1.05a3.55 3.55 0 0 1 1.06 2.53c0-.95.4-1.86 1.07-2.53a3.69 3.69 0 0 1 2.58-1.05Z" fill="#D22856"></path><path d="M43.29 19.07h.73a2.47 2.47 0 0 0-2.14-1.22 2.03 2.03 0 0 1-1.9-1.33c-.72.2-1.42.48-2.1.8h.2a2 2 0 0 1 1.41.59c.38.37.6.87.6 1.4v.28a8.98 8.98 0 0 1 3.2-.52Z" fill="#fff"></path><path d="m60.73 27.65-5.19-21.08c-.36-2.32-2.61-6.57-8.64-6.57-.4 0-.78.16-1.06.43a1.47 1.47 0 0 0 0 2.1c.28.28.66.43 1.06.43 4.87 0 5.6 3.69 5.67 4.09l4.78 19.45h-2.1a11.72 11.72 0 0 0-5.32-8.41 2.5 2.5 0 0 0-1.54 2.27 2 2 0 0 1 0 .26 9.15 9.15 0 0 1 4.02 7.37c0 .5-.06 1-.14 1.48a8.85 8.85 0 0 1-3.05 5.4 9.13 9.13 0 0 1-11.77 0 8.85 8.85 0 0 1-3.05-5.4 9.03 9.03 0 0 1-.14-1.48 9.1 9.1 0 0 1 .95-3.95c-.5-.03-.98-.26-1.33-.62a1.96 1.96 0 0 1-.54-1.35.7.7 0 0 0-.19-.49 11.57 11.57 0 0 0-1.8 4.94h-1.86a11.78 11.78 0 0 0-3.94-7.54 12.17 12.17 0 0 0-16.1 0 11.78 11.78 0 0 0-3.93 7.54h-2.08l4.8-19.47c.05-.4.8-4.09 5.66-4.09.4 0 .78-.15 1.06-.43a1.47 1.47 0 0 0 0-2.1 1.52 1.52 0 0 0-1.06-.43c-6.03 0-8.28 4.25-8.64 6.57l-5.2 21.08a1.38 1.38 0 0 0 .24 1.26 1.42 1.42 0 0 0 1.2.53h4.01c.08.61.21 1.22.38 1.81.07-.1.1-.23.1-.35a2.03 2.03 0 0 1 2.5-1.9 8.84 8.84 0 0 1 .06-2.53 8.85 8.85 0 0 1 3.04-5.41 9.13 9.13 0 0 1 11.8 0 8.85 8.85 0 0 1 3.03 5.41 8.87 8.87 0 0 1-2.53 7.75 9.18 9.18 0 0 1-6.38 2.62 9.15 9.15 0 0 1-5.45-1.7c-.36.3-.83.47-1.3.48-.2 0-.4.08-.53.22a.73.73 0 0 0-.22.52c0 .27-.06.54-.18.8a12.09 12.09 0 0 0 7.64 2.7c2.95.01 5.8-1.04 8.02-2.95a11.79 11.79 0 0 0 4-7.44h1.82c.34 2.9 1.74 5.57 3.95 7.51a12.17 12.17 0 0 0 16.06 0 11.78 11.78 0 0 0 3.95-7.5h4.02a1.44 1.44 0 0 0 1.22-.54 1.38 1.38 0 0 0 .22-1.3Z" fill="#fff"></path><path d="M50.92 15.92a4.58 4.58 0 0 1-4.18-2.74 4.37 4.37 0 0 1-.34-1.7 4.4 4.4 0 0 1-1.33 3.14c-.84.83-2 1.3-3.19 1.3 1.2 0 2.35.47 3.2 1.3a4.42 4.42 0 0 1 1.32 3.14 4.44 4.44 0 0 1 4.52-4.44Zm-12.85 3.46c-.73 0-1.43-.28-1.95-.8a2.7 2.7 0 0 1-.8-1.91c0 .72-.3 1.4-.81 1.91-.52.51-1.22.8-1.95.8.73 0 1.43.29 1.95.8.51.5.8 1.2.8 1.9 0-.71.3-1.4.81-1.9.52-.51 1.22-.8 1.95-.8Zm-27.28 14.26c-.73 0-1.43-.3-1.95-.8a2.7 2.7 0 0 1-.8-1.91 2.71 2.71 0 0 1-2.75 2.71c.73 0 1.43.3 1.95.8.51.5.8 1.2.8 1.92 0-.72.3-1.4.8-1.92.52-.5 1.22-.8 1.95-.8Z" fill="#D22856"></path></svg><svg viewBox="0 0 74 23" fill="none" id="logo-mobile"><path d="M0 1.55a1.29 1.29 0 0 1 1.26-1.29h7.13c5.06 0 8.39 2.7 8.39 7.13v.06c0 4.85-4.04 7.36-8.8 7.36h-5.44v6.8a1.28 1.28 0 0 1-1.27 1.39 1.27 1.27 0 0 1-1.27-1.39v-20.06Zm8.07 10.97c3.7 0 6.14-2 6.14-4.99v-.06c0-3.2-2.4-4.87-5.96-4.87h-5.66v9.88l5.48.04Zm13.53-11.13a1.28 1.28 0 0 1 1.26-1.39 1.27 1.27 0 0 1 1.27 1.39v20.22a1.28 1.28 0 0 1-1.27 1.39 1.27 1.27 0 0 1-1.27-1.39v-20.22Zm9.07.03a1.28 1.28 0 0 1 1.26-1.25h.34a1.54 1.54 0 0 1 1.29.74l13.6 17.4v-16.95a1.24 1.24 0 0 1 1.23-1.24 1.23 1.23 0 0 1 1.23 1.24v20.3a1.14 1.14 0 0 1-1.15 1.17h-.13a1.7 1.7 0 0 1-1.31-.78l-13.91-17.8v17.4a1.26 1.26 0 0 1-1.2 1.25 1.23 1.23 0 0 1-1.2-1.25v-20.23h-.05Zm25.27-.03a1.28 1.28 0 0 1 1.27-1.39 1.27 1.27 0 0 1 1.26 1.39v12.3l12.76-13.14a1.5 1.5 0 0 1 1-.45 1.27 1.27 0 0 1 1.21 1.26 1.29 1.29 0 0 1-.41.9l-7.95 7.9 8.57 10.52c.23.26.35.6.35.94a1.31 1.31 0 0 1-1.34 1.28 1.23 1.23 0 0 1-1-.58l-8.36-10.46-4.83 4.85v4.88a1.27 1.27 0 0 1-1.26 1.27 1.26 1.26 0 0 1-1.26-1.27v-20.2h-.01Z" fill="#fff"></path></svg><svg viewBox="0 0 145 40" fill="none" id="logo-tablet"><path fill-rule="evenodd" clip-rule="evenodd" d="m53.9 6.59 5.03 21.14a1.42 1.42 0 0 1-.75 1.72c-.2.09-.43.13-.65.11h-4.01a11.63 11.63 0 0 1-11.49 10.32c-5.92 0-10.8-4.5-11.49-10.32h-1.96a11.75 11.75 0 0 1-11.61 10.44c-6 0-10.94-4.57-11.61-10.47h-3.91a1.36 1.36 0 0 1-1.15-.53 1.42 1.42 0 0 1-.24-1.27l5.04-21.14c.36-2.33 2.54-6.59 8.39-6.59.38 0 .76.16 1.03.44a1.5 1.5 0 0 1 0 2.1c-.27.27-.65.43-1.03.43-4.71 0-5.44 3.7-5.5 4.1l-4.65 19.53h2.03a11.75 11.75 0 0 1 11.6-10.3c5.94 0 10.84 4.48 11.6 10.3h1.99a11.63 11.63 0 0 1 11.47-10.19c5.89 0 10.75 4.46 11.48 10.23v-.06h2.14l-4.64-19.5c-.07-.41-.77-4.1-5.5-4.1-.39 0-.76-.17-1.03-.44a1.5 1.5 0 0 1 0-2.1c.27-.28.64-.44 1.03-.44 5.85 0 8.03 4.26 8.38 6.59Zm-28.23 22.97a9.12 9.12 0 0 0-.02-2.97 8.85 8.85 0 0 0-8.68-7.38 8.85 8.85 0 0 0-8.82 8.94 8.85 8.85 0 0 0 8.81 8.94c4.4 0 8.04-3.26 8.71-7.53Zm24.94 0a8.75 8.75 0 0 0-8.58-10.23 8.75 8.75 0 0 0-8.58 10.23 8.73 8.73 0 0 0 8.58 7.4c4.33 0 7.91-3.2 8.58-7.4Z" fill="#fff"></path><path d="M71 18.55a1.29 1.29 0 0 1 1.26-1.29h7.13c5.06 0 8.39 2.7 8.39 7.13v.06c0 4.85-4.04 7.36-8.8 7.36h-5.44v6.8a1.28 1.28 0 0 1-1.27 1.39 1.27 1.27 0 0 1-1.27-1.39v-20.06Zm8.07 10.97c3.7 0 6.14-2 6.14-4.99v-.06c0-3.2-2.4-4.87-5.96-4.87h-5.66v9.88l5.48.04Zm13.53-11.13a1.28 1.28 0 0 1 1.26-1.39 1.27 1.27 0 0 1 1.27 1.39v20.22a1.28 1.28 0 0 1-1.27 1.39 1.27 1.27 0 0 1-1.27-1.39v-20.22Zm9.07.03a1.28 1.28 0 0 1 1.26-1.25h.34a1.53 1.53 0 0 1 1.29.74l13.6 17.4v-16.95a1.24 1.24 0 0 1 1.23-1.24 1.23 1.23 0 0 1 1.23 1.24v20.3a1.16 1.16 0 0 1-.32.83 1.13 1.13 0 0 1-.83.34h-.13a1.69 1.69 0 0 1-1.31-.78l-13.91-17.8v17.4a1.26 1.26 0 0 1-1.2 1.25 1.23 1.23 0 0 1-1.2-1.25v-20.23h-.05Zm25.27-.03a1.28 1.28 0 0 1 1.27-1.39 1.27 1.27 0 0 1 1.26 1.39v12.3l12.76-13.14a1.5 1.5 0 0 1 1-.45 1.27 1.27 0 0 1 1.21 1.26 1.3 1.3 0 0 1-.41.9l-7.95 7.9 8.57 10.52c.23.26.35.6.35.94a1.33 1.33 0 0 1-.4.92 1.29 1.29 0 0 1-.94.36 1.23 1.23 0 0 1-1-.58l-8.36-10.46-4.83 4.85v4.88a1.28 1.28 0 0 1-.78 1.17 1.26 1.26 0 0 1-1.74-1.17v-20.2h-.01Z" fill="#fff"></path></svg><svg viewBox="0 0 79 63" fill="none" id="quotes"><path d="m35.15 6.97-4.31-6.97c-2.45 1.48-30.84 12.06-30.84 39.13 0 7.14.34 23.87 18.98 23.87 11.24 0 14-10.15 14-13.42 0-21.73-21.47-14-21.47-14 0-17.8 19.88-26.51 23.64-28.6Zm43.85 0-4.27-6.97c-2.43 1.48-30.85 12.06-30.85 39.13 0 7.14.34 23.87 19 23.87 11.22 0 13.98-10.15 13.98-13.42 0-21.73-21.47-14-21.47-14 0-17.8 19.92-26.51 23.61-28.6Z" fill="#EFEFEF"></path></svg><svg viewBox="0 0 238 276" preserveAspectRatio="none" fill="none" id="timer"><path d="m211.31 81.63 4.28-4.29c6.16-6.17 7.29-15.15 2.5-19.94-4.8-4.79-13.76-3.68-19.91 2.5l-4.3 4.3a118.27 118.27 0 0 0-59.7-25.57v-7.67h6.13c8.7 0 15.84-6.97 15.84-15.48 0-8.5-7.13-15.48-15.84-15.48h-42.59c-8.71 0-15.84 6.97-15.84 15.48 0 8.52 7.13 15.48 15.84 15.48h6.12v7.67a118.94 118.94 0 0 0-69.05 34 119.31 119.31 0 0 0-18.32 144.68 119.05 119.05 0 0 0 58.38 50.19 118.84 118.84 0 0 0 76.85 3.91 118.99 118.99 0 0 0 63.18-43.99 119.28 119.28 0 0 0-3.57-145.8Zm-92.3 163.32a87.9 87.9 0 0 1-48.88-14.85 88.23 88.23 0 0 1-13.33-135.57 87.95 87.95 0 0 1 95.89-19.1 88.01 88.01 0 0 1 39.49 32.45 88.2 88.2 0 0 1-10.95 111.26 87.92 87.92 0 0 1-62.22 25.8Z" fill="#DEDEDE"></path><circle cx="119" cy="156" r="93" stroke="#D22856" stroke-width="16"></circle><path d="M115.9 190h-47.9v-10.08l17.2-17.39c5.1-5.22 8.42-8.83 9.99-10.83a24.27 24.27 0 0 0 3.37-5.62c.69-1.72 1.03-3.5 1.03-5.35 0-2.75-.76-4.8-2.3-6.14-1.5-1.34-3.5-2.01-6.04-2.01-2.66 0-5.23.6-7.73 1.83a39.92 39.92 0 0 0-7.83 5.2l-7.88-9.33c3.38-2.87 6.17-4.9 8.4-6.1a30.07 30.07 0 0 1 7.26-2.71c2.62-.66 5.56-.99 8.81-.99 4.28 0 8.06.79 11.34 2.35a18.1 18.1 0 0 1 7.65 6.56 17.43 17.43 0 0 1 2.71 9.66c0 3.15-.56 6.12-1.68 8.9a33.4 33.4 0 0 1-5.16 8.49c-2.31 2.9-6.4 7.04-12.28 12.42l-8.81 8.3v.65h29.86v12.19Zm56.4-14.2h-8.25v14.2h-14.16v-14.2h-29.25v-10.08l30.05-44.25h13.36v43.08h8.25v11.25Zm-22.4-11.25v-11.63a222.2 222.2 0 0 1 .6-14.86h-.38a52.2 52.2 0 0 1-4.17 7.5l-12.56 18.99h16.5Z" fill="#D22856"></path></svg><svg viewBox="0 0 1200 123" fill="none" id="triangle-mask"><path d="m600 123-600-123h1200l-600 123Z" fill="#fff"></path></svg></svg>