<svg viewBox="0 0 145 40" fill="none" xmlns="http://www.w3.org/2000/svg"><path fill-rule="evenodd" clip-rule="evenodd" d="m53.9 6.59 5.03 21.14a1.42 1.42 0 0 1-.75 1.72c-.2.09-.43.13-.65.11h-4.01a11.63 11.63 0 0 1-11.49 10.32c-5.92 0-10.8-4.5-11.49-10.32h-1.96a11.75 11.75 0 0 1-11.61 10.44c-6 0-10.94-4.57-11.61-10.47h-3.91a1.36 1.36 0 0 1-1.15-.53 1.42 1.42 0 0 1-.24-1.27l5.04-21.14c.36-2.33 2.54-6.59 8.39-6.59.38 0 .76.16 1.03.44a1.5 1.5 0 0 1 0 2.1c-.27.27-.65.43-1.03.43-4.71 0-5.44 3.7-5.5 4.1l-4.65 19.53h2.03a11.75 11.75 0 0 1 11.6-10.3c5.94 0 10.84 4.48 11.6 10.3h1.99a11.63 11.63 0 0 1 11.47-10.19c5.89 0 10.75 4.46 11.48 10.23v-.06h2.14l-4.64-19.5c-.07-.41-.77-4.1-5.5-4.1-.39 0-.76-.17-1.03-.44a1.5 1.5 0 0 1 0-2.1c.27-.28.64-.44 1.03-.44 5.85 0 8.03 4.26 8.38 6.59Zm-28.23 22.97a9.12 9.12 0 0 0-.02-2.97 8.85 8.85 0 0 0-8.68-7.38 8.85 8.85 0 0 0-8.82 8.94 8.85 8.85 0 0 0 8.81 8.94c4.4 0 8.04-3.26 8.71-7.53Zm24.94 0a8.75 8.75 0 0 0-8.58-10.23 8.75 8.75 0 0 0-8.58 10.23 8.73 8.73 0 0 0 8.58 7.4c4.33 0 7.91-3.2 8.58-7.4Z" fill="#fff"/><path d="M71 18.55a1.29 1.29 0 0 1 1.26-1.29h7.13c5.06 0 8.39 2.7 8.39 7.13v.06c0 4.85-4.04 7.36-8.8 7.36h-5.44v6.8a1.28 1.28 0 0 1-1.27 1.39 1.27 1.27 0 0 1-1.27-1.39v-20.06Zm8.07 10.97c3.7 0 6.14-2 6.14-4.99v-.06c0-3.2-2.4-4.87-5.96-4.87h-5.66v9.88l5.48.04Zm13.53-11.13a1.28 1.28 0 0 1 1.26-1.39 1.27 1.27 0 0 1 1.27 1.39v20.22a1.28 1.28 0 0 1-1.27 1.39 1.27 1.27 0 0 1-1.27-1.39v-20.22Zm9.07.03a1.28 1.28 0 0 1 1.26-1.25h.34a1.53 1.53 0 0 1 1.29.74l13.6 17.4v-16.95a1.24 1.24 0 0 1 1.23-1.24 1.23 1.23 0 0 1 1.23 1.24v20.3a1.16 1.16 0 0 1-.32.83 1.13 1.13 0 0 1-.83.34h-.13a1.69 1.69 0 0 1-1.31-.78l-13.91-17.8v17.4a1.26 1.26 0 0 1-1.2 1.25 1.23 1.23 0 0 1-1.2-1.25v-20.23h-.05Zm25.27-.03a1.28 1.28 0 0 1 1.27-1.39 1.27 1.27 0 0 1 1.26 1.39v12.3l12.76-13.14a1.5 1.5 0 0 1 1-.45 1.27 1.27 0 0 1 1.21 1.26 1.3 1.3 0 0 1-.41.9l-7.95 7.9 8.57 10.52c.23.26.35.6.35.94a1.33 1.33 0 0 1-.4.92 1.29 1.29 0 0 1-.94.36 1.23 1.23 0 0 1-1-.58l-8.36-10.46-4.83 4.85v4.88a1.28 1.28 0 0 1-.78 1.17 1.26 1.26 0 0 1-1.74-1.17v-20.2h-.01Z" fill="#fff"/></svg>