<svg viewBox="0 0 18 13" fill="none" xmlns="http://www.w3.org/2000/svg"><path d="M14.91 1.68c1.2-.93.91-1.68-.65-1.68h-10.53c-1.56 0-1.85.76-.66 1.68l3.75 2.9a3.7 3.7 0 0 0 4.35 0l3.74-2.9Z" fill="#D22856"/><path d="m11.91 6.5-2.21 1.75c-.08.04-.17.08-.26.1l-.1.05c-.1.05-.22.07-.34.09l-.33-.06-.12-.07a1.18 1.18 0 0 1-.24-.13l-2.23-1.73-3.9-2.97c-1.18-.93-2.18-.5-2.18.95v5.86a2.48 2.48 0 0 0 .82 1.87 2.87 2.87 0 0 0 2.01.79h12.32a3.04 3.04 0 0 0 2.02-.78 2.53 2.53 0 0 0 .83-1.88v-5.86c0-1.45-1-1.86-2.18-.93l-3.91 2.95Z" fill="#D22856"/></svg>