<svg viewBox="0 0 18 14" fill="none" xmlns="http://www.w3.org/2000/svg"><path d="M11.56.17a3.67 3.67 0 0 1 2.11-.03c.69.2 1.3.59 1.72 1.12.72-.2 1.42-.44 2.14-.65-.01.32-.1.63-.26.91a2.2 2.2 0 0 1-.65.73 1.8 1.8 0 0 0 1.38-.45 2.85 2.85 0 0 1-1.66 1.9c-.25 6.27-3.37 10.47-10.69 10.3h-.5c-.44 0-4.42-.43-5.15-1.76a7.28 7.28 0 0 0 4.98-1.09c-1.03-.29-2.85-.45-3.16-2.74.4.13.81.16 1.22.08-1.28-.78-2.7-1.45-2.62-3.5.4.3.9.47 1.42.44-.74-.23-2.09-3.12-.94-4.6 1.92 1.72 3.96 3.34 7.59 3.5.22-2.12 1.2-3.55 3.07-4.16Z" fill="#D22856"/></svg>