<svg viewBox="0 0 20 19" fill="none" xmlns="http://www.w3.org/2000/svg"><path d="M10.04 0c-3.58 0-7.13.6-8.46 1.82a6.4 6.4 0 0 0-1.58 4.05c0 .21.09.41.25.56.15.15.37.23.59.23l3.24-.25h.08a.86.86 0 0 0 .58-.23.78.78 0 0 0 .24-.56v-1.57a.83.83 0 0 1 .26-.62.92.92 0 0 1 .65-.26h8.16c.24 0 .48.09.65.25.18.17.27.4.27.63v1.55a.83.83 0 0 0 .82.79h.09l3.28.25a.88.88 0 0 0 .6-.23.8.8 0 0 0 .24-.56v-.16a6.46 6.46 0 0 0-1.56-3.86c-1.24-1.22-4.82-1.83-8.4-1.83Zm0 10.3c-.33 0-.65.1-.93.27a1.6 1.6 0 0 0-.61.71 1.5 1.5 0 0 0 .36 1.73 1.76 1.76 0 0 0 1.82.34c.3-.12.57-.32.75-.58a1.53 1.53 0 0 0-.2-2 1.67 1.67 0 0 0-1.19-.47Zm-1.25-3.54v-.97c0-.25-.11-.5-.3-.68a1.07 1.07 0 0 0-1.44 0c-.2.18-.3.43-.3.68v.97l-5.73 5.69a1.93 1.93 0 0 0-.63 1.42v1.58c0 .42.18.83.49 1.12.31.3.74.47 1.18.47h.42v.97a.95.95 0 0 0 .3.7 1.05 1.05 0 0 0 .74.29 1.1 1.1 0 0 0 .74-.29.99.99 0 0 0 .3-.7v-.97h10.91v.97a1 1 0 0 0 .3.7c.2.19.47.29.75.29.27 0 .54-.1.74-.29.2-.19.3-.44.3-.7v-.97h.42a1.75 1.75 0 0 0 1.19-.46 1.58 1.58 0 0 0 .48-1.13v-1.58a1.84 1.84 0 0 0-.62-1.42l-5.65-5.69v-.97a.96.96 0 0 0-.3-.7 1.1 1.1 0 0 0-.74-.29c-.28 0-.54.1-.74.3-.2.18-.3.43-.3.7v.96h-2.51Zm1.25 1.93c.66 0 1.3.19 1.86.54.55.34.98.84 1.23 1.42a3.01 3.01 0 0 1-.73 3.45 3.52 3.52 0 0 1-3.64.69 3.31 3.31 0 0 1-1.5-1.17 3.05 3.05 0 0 1 .42-4c.62-.6 1.47-.93 2.36-.93Z" fill="#D22856"/></svg>