<svg viewBox="0 0 13 12" fill="none" xmlns="http://www.w3.org/2000/svg"><path d="M6.47 12a.78.78 0 0 1-.58-.25c-3.93-4.33-4.85-5.31-5.03-5.58a3.77 3.77 0 0 1-.86-2.37c0-.73.22-1.44.63-2.05.4-.6.99-1.1 1.67-1.4a4.09 4.09 0 0 1 4.21.55 4.08 4.08 0 0 1 5.34.22 3.73 3.73 0 0 1 1.15 2.68 3.4 3.4 0 0 1-.92 2.38l-5.04 5.56a.76.76 0 0 1-.57.25v.01Zm-4.4-6.72c.22.26 2.56 2.84 4.4 4.86l4.48-4.94c.36-.38.55-.88.54-1.4 0-.62-.26-1.21-.71-1.65a2.46 2.46 0 0 0-2.8-.43c-.35.16-.65.4-.88.69a.82.82 0 0 1-.61.28.76.76 0 0 1-.6-.3 2.43 2.43 0 0 0-1.95-.92 2.41 2.41 0 0 0-2.16 1.34 2.27 2.27 0 0 0 .3 2.46v.01Z" fill="#D22856"/></svg>